<svg width="72" height="76" viewBox="0 0 72 76" fill="none" xmlns="http://www.w3.org/2000/svg">
<path d="M61.5873 5H67V10.2993H61.5873V5Z" fill="#2867B2"/>
<path d="M20.746 15.1168H15.3333V20.4161H20.746V15.1168Z" fill="#2867B2"/>
<path d="M61.5873 15.1168H67V20.4161H61.5873V15.1168Z" fill="#2867B2"/>
<path d="M61.5873 25.2336H67V50.7664H61.5873V25.2336Z" fill="#2867B2"/>
<path fill-rule="evenodd" clip-rule="evenodd" d="M51.254 55.5839H67V71H5V55.5839H9.92063V50.7664H5V35.3504H15.8254V40.6496H10.4127V45.4672H20.746V35.3504H26.1587V50.7664H15.3333V55.5839H20.746V65.7007H40.9206V60.8832H25.6667V55.5839H46.3333V65.7007H51.254V55.5839ZM56.6667 60.8832H61.5873V65.7007H56.6667V60.8832ZM15.3333 60.8832H10.4127V65.7007H15.3333V60.8832Z" fill="#2867B2"/>
<path d="M26.1587 25.2336H10.4127V10.2993H26.1587V5H5V30.5328H26.1587V25.2336Z" fill="#2867B2"/>
<path d="M31.0794 5H57.1587V30.5328H51.746V10.2993H36.4921V15.1168H46.8254V20.4161H36.4921V25.2336H46.8254V30.5328H36.4921V45.4672H51.746V40.6496H41.4127V35.3504H57.1587V50.7664H31.0794V5Z" fill="#2867B2"/>
</svg>
